<?xml version="1.0" encoding="utf-8"?>
<!-- Generator: Adobe Illustrator 15.1.0, SVG Export Plug-In . SVG Version: 6.00 Build 0)  -->
<!DOCTYPE svg PUBLIC "-//W3C//DTD SVG 1.1//EN" "http://www.w3.org/Graphics/SVG/1.1/DTD/svg11.dtd">
<svg version="1.1" xmlns="http://www.w3.org/2000/svg" xmlns:xlink="http://www.w3.org/1999/xlink" x="0px" y="0px" width="100px"
	 height="100px" viewBox="0 0 100 100" enable-background="new 0 0 100 100" xml:space="preserve">
<g id="Ebene_6">
	<rect fill="#988048" width="100" height="100"/>
</g>
<g id="Ebene_5">
	<rect x="86.001" y="9.021" fill="#706030" width="3" height="2.958"/>
	<rect x="94.959" y="3.021" fill="#706030" width="3" height="6"/>
	<rect x="97" y="6.021" fill="#706030" width="3" height="3"/>
	<rect x="94.959" y="14.979" fill="#706030" width="5.041" height="2.958"/>
	<rect x="91.959" y="17.938" fill="#706030" width="3" height="6.062"/>
	<rect x="86.001" y="21.042" fill="#706030" width="8.958" height="2.958"/>
	<rect x="86.001" y="21.042" fill="#706030" width="5.958" height="6"/>
	<rect x="88.979" y="22.792" fill="#706030" width="3" height="7.208"/>
	<rect x="98.001" y="33.063" fill="#706030" width="1.999" height="2.958"/>
	<rect x="86.001" y="36.021" fill="#706030" width="11.958" height="2.958"/>
	<rect x="88.979" y="33.063" fill="#706030" width="3" height="11.854"/>
	<rect x="83.001" y="33.063" fill="#706030" width="8.958" height="2.958"/>
	<rect x="91.959" y="44.917" fill="#706030" width="3" height="2.958"/>
	<rect x="98.001" y="44.917" fill="#706030" width="1.956" height="2.958"/>
	<rect x="94.959" y="47.875" fill="#706030" width="3" height="9.043"/>
	<rect x="85.959" y="50.979" fill="#706030" width="10.289" height="2.959"/>
	<rect x="88.979" y="52.668" fill="#706030" width="3" height="4.228"/>
	<rect x="94.959" y="53.979" fill="#706030" width="4.998" height="2.958"/>
	<rect x="98.001" y="53.979" fill="#706030" width="1.956" height="5.874"/>
	<rect x="79.959" y="59.979" fill="#706030" width="9.021" height="2.958"/>
	<rect x="82.969" y="57.021" fill="#706030" width="3" height="4.438"/>
	<rect x="91.979" y="62.938" fill="#706030" width="8.021" height="2.958"/>
	<rect x="94.959" y="64.543" fill="#706030" width="3" height="4.437"/>
	<rect x="88.979" y="65.896" fill="#706030" width="3" height="2.958"/>
	<rect x="97.959" y="72.063" fill="#706030" width="2.041" height="2.958"/>
	<rect x="85.959" y="72.063" fill="#706030" width="6.021" height="2.958"/>
	<rect x="82.959" y="75.021" fill="#706030" width="6.01" height="5.896"/>
	<rect x="88.979" y="80.917" fill="#706030" width="3" height="2.958"/>
	<rect x="97.959" y="81.021" fill="#706030" width="2.041" height="2.958"/>
	<rect x="91.979" y="83.875" fill="#706030" width="5.979" height="2.958"/>
	<rect x="94.97" y="83.979" fill="#706030" width="3" height="6"/>
	<rect x="82.959" y="86.979" fill="#706030" width="9.021" height="2.958"/>
	<rect x="82.959" y="88.707" fill="#706030" width="3" height="7.272"/>
	<rect x="82.959" y="93.021" fill="#706030" width="6.01" height="2.958"/>
	<rect x="88.969" y="95.979" fill="#706030" width="6" height="2.958"/>
	<rect x="97.97" y="93.021" fill="#706030" width="2.03" height="2.958"/>
	<rect x="97.97" y="98.938" fill="#706030" width="2.03" height="1.062"/>
	<rect x="76.959" y="93.021" fill="#706030" width="3" height="6.979"/>
	<rect x="70.959" y="95.979" fill="#706030" width="9" height="4.021"/>
	<rect x="67.959" y="93.021" fill="#706030" width="3" height="2.958"/>
	<rect x="67.959" y="86.979" fill="#706030" width="12" height="2.958"/>
	<rect x="73.959" y="84.021" fill="#706030" width="3" height="4.019"/>
	<rect x="76.959" y="81.063" fill="#706030" width="6" height="2.958"/>
	<rect x="73.959" y="77.97" fill="#706030" width="6" height="2.958"/>
	<rect x="76.959" y="79.438" fill="#706030" width="3" height="2.958"/>
	<rect x="67.959" y="75.021" fill="#706030" width="9" height="2.958"/>
	<rect x="73.959" y="76.313" fill="#706030" width="3" height="2.958"/>
	<rect x="70.959" y="72.063" fill="#706030" width="3" height="3.438"/>
	<rect x="73.959" y="69.105" fill="#706030" width="3" height="2.958"/>
	<rect x="76.959" y="72.063" fill="#706030" width="6" height="2.958"/>
	<rect x="58.959" y="99.063" fill="#706030" width="3" height="0.937"/>
	<rect x="50" y="93.021" fill="#706030" width="5.957" height="2.958"/>
	<rect x="52.959" y="89.938" fill="#706030" width="3" height="5.916"/>
	<rect x="44.001" y="93.021" fill="#706030" width="3" height="2.958"/>
	<rect x="47.001" y="95.854" fill="#706030" width="3" height="4.146"/>
	<rect x="37.959" y="99.063" fill="#706030" width="10.289" height="0.937"/>
	<rect x="50" y="81.021" fill="#706030" width="3" height="2.958"/>
	<rect x="37.997" y="84.021" fill="#706030" width="12.004" height="2.958"/>
	<rect x="40.999" y="81.063" fill="#706030" width="3" height="11.832"/>
	<rect x="34.997" y="81.021" fill="#706030" width="7.333" height="2.958"/>
	<rect x="37.997" y="81.021" fill="#706030" width="3" height="3.65"/>
	<rect x="53" y="72.063" fill="#706030" width="3" height="8.958"/>
	<rect x="53.412" y="77.979" fill="#706030" width="5.588" height="2.958"/>
	<rect x="56" y="81.021" fill="#706030" width="8.996" height="2.958"/>
	<rect x="56" y="79.889" fill="#706030" width="3" height="2.958"/>
	<rect x="58.998" y="66.063" fill="#706030" width="5.998" height="2.958"/>
	<rect x="58.998" y="66.063" fill="#706030" width="3" height="5.916"/>
	<rect x="64.996" y="51.104" fill="#706030" width="6" height="5.917"/>
	<rect x="67.996" y="54.063" fill="#706030" width="6" height="2.958"/>
	<rect x="70.996" y="55.543" fill="#706030" width="3" height="4.437"/>
	<rect x="58.998" y="48.146" fill="#706030" width="5.998" height="2.958"/>
	<rect x="74.084" y="36.021" fill="#706030" width="5.959" height="5.979"/>
	<rect x="75.46" y="39.042" fill="#706030" width="10.541" height="2.958"/>
	<rect x="85.98" y="35.021" fill="#706030" width="3" height="2.958"/>
	<rect x="83.001" y="41.979" fill="#706030" width="8.958" height="2.958"/>
	<rect x="83.001" y="40.5" fill="#706030" width="3" height="2.958"/>
	<rect x="70.996" y="42.021" fill="#706030" width="6.067" height="2.958"/>
	<rect x="74.084" y="40.542" fill="#706030" width="3" height="2.958"/>
	<rect x="65.042" y="30.105" fill="#706030" width="12.021" height="2.958"/>
	<rect x="77.063" y="24.042" fill="#706030" width="5.938" height="6.063"/>
	<rect x="70.959" y="24.042" fill="#706030" width="12.042" height="2.958"/>
	<rect x="67.959" y="21.083" fill="#706030" width="3" height="2.958"/>
	<rect x="61.959" y="27.147" fill="#706030" width="3" height="2.958"/>
	<rect x="58.959" y="30.105" fill="#706030" width="3" height="2.958"/>
	<rect x="61.959" y="33.063" fill="#706030" width="6.047" height="2.958"/>
	<rect x="65.042" y="31.23" fill="#706030" width="3" height="4.791"/>
	<rect x="55.959" y="27" fill="#706030" width="3" height="2.958"/>
	<rect x="52.959" y="33.063" fill="#706030" width="3" height="2.958"/>
	<rect x="47.005" y="54.063" fill="#706030" width="8.996" height="2.958"/>
	<rect x="47.005" y="51.104" fill="#706030" width="3" height="5.731"/>
	<rect x="55.959" y="57.021" fill="#706030" width="6.038" height="2.958"/>
	<rect x="53" y="59.979" fill="#706030" width="5.959" height="6.084"/>
	<rect x="56.001" y="58.854" fill="#706030" width="3" height="2.958"/>
	<rect x="47.005" y="63.021" fill="#706030" width="11.374" height="3.042"/>
	<rect x="44.005" y="66.063" fill="#706030" width="3" height="5.916"/>
	<rect x="38.042" y="69.021" fill="#706030" width="5.962" height="5.982"/>
	<rect x="42.042" y="69.021" fill="#706030" width="3" height="2.958"/>
	<rect x="40.999" y="69.021" fill="#706030" width="3" height="8.94"/>
	<rect x="20" y="86.979" fill="#706030" width="17.996" height="2.958"/>
	<rect x="34.997" y="89.938" fill="#706030" width="9.002" height="2.958"/>
	<rect x="34.997" y="89.354" fill="#706030" width="3" height="2.958"/>
	<rect x="25.999" y="84.021" fill="#706030" width="5.963" height="4.191"/>
	<rect x="20" y="93.063" fill="#706030" width="3" height="2.958"/>
	<rect x="23" y="96.021" fill="#706030" width="5.979" height="3.979"/>
	<rect y="93.063" fill="#706030" width="7.961" height="2.958"/>
	<rect x="4.961" y="90.105" fill="#706030" width="3" height="5.916"/>
	<rect x="1.961" y="95.053" fill="#706030" width="3" height="4.947"/>
	<rect x="11.042" y="98.98" fill="#706030" width="3" height="1.02"/>
	<rect x="4.961" y="72.046" fill="#706030" width="3" height="8.892"/>
	<rect x="2.086" y="78.063" fill="#706030" width="8.875" height="2.958"/>
	<rect x="2.086" y="72.046" fill="#706030" width="3" height="2.958"/>
	<rect x="7.127" y="72.046" fill="#706030" width="3.833" height="2.958"/>
	<rect x="7.961" y="81.021" fill="#706030" width="9.083" height="2.958"/>
	<rect x="7.961" y="79.812" fill="#706030" width="3" height="2.958"/>
	<rect y="81.021" fill="#706030" width="4.961" height="2.958"/>
	<rect x="1.961" y="78.063" fill="#706030" width="3" height="4.874"/>
	<rect x="20" y="75.105" fill="#706030" width="14.996" height="2.958"/>
	<rect x="25.999" y="77.464" fill="#706030" width="3" height="3.516"/>
	<rect x="28.999" y="72.147" fill="#706030" width="5.998" height="5.916"/>
	<rect x="20" y="72.147" fill="#706030" width="5.998" height="3.984"/>
	<rect x="23" y="60.021" fill="#706030" width="3" height="15.527"/>
	<rect x="25.337" y="66.063" fill="#706030" width="3.662" height="2.958"/>
	<rect x="28.999" y="63.105" fill="#706030" width="5.998" height="2.958"/>
	<rect x="17" y="63.021" fill="#706030" width="6.419" height="2.958"/>
	<rect x="38.042" y="57.021" fill="#706030" width="3" height="2.958"/>
	<rect y="63.021" fill="#706030" width="4.961" height="2.958"/>
	<rect y="63.021" fill="#706030" width="1.961" height="5.904"/>
	<rect x="1.961" y="54.01" fill="#706030" width="3" height="5.928"/>
	<rect y="47.98" fill="#706030" width="1.961" height="8.993"/>
	<rect x="11.042" y="51.052" fill="#706030" width="3" height="5.922"/>
	<rect x="11.042" y="54.013" fill="#706030" width="11.957" height="2.958"/>
	<rect x="17" y="56.223" fill="#706030" width="3" height="3.709"/>
	<rect x="23" y="48.094" fill="#706030" width="5.922" height="5.919"/>
	<rect x="20" y="44.938" fill="#706030" width="3" height="2.958"/>
	<rect x="28.922" y="44.938" fill="#706030" width="3" height="6.114"/>
	<rect x="27.125" y="48.094" fill="#706030" width="3" height="2.958"/>
	<rect x="35.042" y="41.98" fill="#706030" width="6" height="6.015"/>
	<rect x="38.042" y="36.063" fill="#706030" width="8.962" height="2.958"/>
	<rect x="41.024" y="37.802" fill="#706030" width="3" height="4.177"/>
	<rect x="5.021" y="42.053" fill="#706030" width="3" height="5.927"/>
	<rect x="2.021" y="45.022" fill="#706030" width="3.51" height="2.958"/>
	<rect x="20" y="39.021" fill="#706030" width="11.921" height="2.958"/>
	<rect x="25.959" y="36.063" fill="#706030" width="5.963" height="5.916"/>
	<rect x="35.042" y="27.021" fill="#706030" width="5.981" height="2.958"/>
	<rect x="35.042" y="28.969" fill="#706030" width="3" height="3.969"/>
	<rect x="47.005" y="24.063" fill="#706030" width="3" height="2.958"/>
	<rect x="44.005" y="21.105" fill="#706030" width="3" height="2.958"/>
	<rect x="49.959" y="21.105" fill="#706030" width="6" height="2.958"/>
	<rect x="52.959" y="18.147" fill="#706030" width="3" height="3.821"/>
	<rect x="56.021" fill="#706030" width="3" height="2.958"/>
	<rect x="62.021" fill="#706030" width="3" height="2.958"/>
	<rect x="53.021" y="2.958" fill="#706030" width="3" height="6.011"/>
	<rect x="53.021" y="6.021" fill="#706030" width="6" height="2.958"/>
	<rect x="56.021" y="8.969" fill="#706030" width="9" height="2.958"/>
	<rect x="56.021" y="8.209" fill="#706030" width="3" height="2.958"/>
	<rect x="50" y="8.969" fill="#706030" width="3" height="2.958"/>
	<rect x="38.062" y="11.927" fill="#706030" width="11.896" height="2.958"/>
	<rect x="44.011" fill="#706030" width="5.948" height="2.958"/>
	<rect x="41.011" y="3.005" fill="#706030" width="3" height="2.958"/>
	<rect x="38.011" fill="#706030" width="3" height="2.958"/>
	<rect x="41.011" y="8.969" fill="#706030" width="3" height="12.137"/>
	<rect x="35.062" y="8.969" fill="#706030" width="8.948" height="2.958"/>
	<rect x="38.037" y="10.943" fill="#706030" width="3" height="2.958"/>
	<rect x="35.062" y="18.147" fill="#706030" width="8.948" height="2.958"/>
	<rect x="29" y="15.189" fill="#706030" width="9.062" height="2.958"/>
	<rect x="29" y="11.927" fill="#706030" width="3" height="6.221"/>
	<rect x="35.062" y="16.422" fill="#706030" width="3" height="2.958"/>
	<rect x="29" y="3.005" fill="#706030" width="6.062" height="2.958"/>
	<rect x="23.037" y="5.943" fill="#706030" width="3" height="5.984"/>
	<rect x="17.037" y="3.005" fill="#706030" width="6" height="5.929"/>
	<rect x="11.037" fill="#706030" width="6" height="2.958"/>
	<rect y="5.97" fill="#706030" width="8.005" height="2.958"/>
	<rect y="3.005" fill="#706030" width="1.943" height="5.923"/>
	<rect x="8.037" y="8.935" fill="#706030" width="5.932" height="2.958"/>
	<rect x="5.005" y="11.893" fill="#706030" width="5.998" height="6.045"/>
	<rect y="14.943" fill="#706030" width="8.037" height="2.958"/>
	<rect x="8.037" y="10.414" fill="#706030" width="2.966" height="2.958"/>
	<rect x="11.037" y="17.901" fill="#706030" width="5.963" height="2.958"/>
	<rect x="11.003" y="19.844" fill="#706030" width="3" height="3.973"/>
	<rect x="26" y="20.985" fill="#706030" width="3" height="2.958"/>
	<rect x="23" y="23.943" fill="#706030" width="3" height="3.87"/>
	<rect x="20" y="26.901" fill="#706030" width="9" height="2.958"/>
	<rect x="26" y="28.5" fill="#706030" width="3" height="4.437"/>
	<rect x="1.974" y="33.005" fill="#706030" width="3" height="2.958"/>
	<rect y="35.963" fill="#706030" width="1.974" height="2.958"/>
	<rect x="4.974" y="23.817" fill="#706030" width="3" height="9.188"/>
	<rect x="5.021" y="30.047" fill="#706030" width="5.953" height="2.958"/>
	<rect x="7.974" y="33.005" fill="#706030" width="8.995" height="2.958"/>
	<rect x="7.974" y="32.037" fill="#706030" width="3" height="2.958"/>
	<rect x="67.977" y="15.037" fill="#706030" width="14.994" height="2.958"/>
	<rect x="73.974" y="12.079" fill="#706030" width="3" height="4.015"/>
	<rect x="68.007" fill="#706030" width="8.968" height="5.938"/>
	<rect x="75.688" fill="#706030" width="4.286" height="2.958"/>
	<rect x="73.974" y="3.844" fill="#706030" width="3" height="5.052"/>
</g>
<g id="Ebene_4">
	<rect x="20.001" y="18.021" fill="#C8B068" width="5.997" height="2.959"/>
	<rect x="20" y="15.062" fill="#C8B068" width="3" height="5.918"/>
	<rect x="67.961" y="65.959" fill="#C8B068" width="5.996" height="2.959"/>
	<rect x="67.959" y="63" fill="#C8B068" width="3" height="5.918"/>
	<rect x="25.999" fill="#C8B068" width="3" height="2.958"/>
	<rect x="25.999" y="15.062" fill="#C8B068" width="3" height="2.958"/>
	<rect x="68.001" y="8.979" fill="#C8B068" width="3" height="2.958"/>
	<rect x="58.959" y="18.021" fill="#C8B068" width="3" height="2.958"/>
	<rect x="77.084" y="18.021" fill="#C8B068" width="3" height="2.958"/>
	<rect x="83.084" y="2.98" fill="#C8B068" width="5.917" height="2.958"/>
	<rect x="89.001" y="8.979" fill="#C8B068" width="9.001" height="2.958"/>
	<rect x="89.001" y="8.979" fill="#C8B068" width="6.001" height="5.916"/>
	<rect x="97" y="20.979" fill="#C8B068" width="3" height="2.958"/>
	<rect x="47" y="30.063" fill="#C8B068" width="6.004" height="2.958"/>
	<rect x="50.002" y="39.021" fill="#C8B068" width="3" height="5.938"/>
	<rect x="50.002" y="41.991" fill="#C8B068" width="9.044" height="2.958"/>
	<rect x="53.024" y="41.991" fill="#C8B068" width="6.021" height="5.916"/>
	<rect x="59.046" y="36.063" fill="#C8B068" width="8.958" height="2.958"/>
	<rect x="59.046" y="36.063" fill="#C8B068" width="5.958" height="5.916"/>
	<rect x="74.021" y="47.907" fill="#C8B068" width="5.979" height="2.958"/>
	<rect x="77.011" y="47.907" fill="#C8B068" width="3" height="5.917"/>
	<rect x="77.011" y="50.865" fill="#C8B068" width="6" height="2.958"/>
	<rect x="73.957" y="63" fill="#C8B068" width="3" height="2.958"/>
	<rect x="80.011" y="68.918" fill="#C8B068" width="3" height="2.958"/>
	<rect x="92.021" y="77.979" fill="#C8B068" width="5.979" height="5.958"/>
	<rect x="67.959" y="80.959" fill="#C8B068" width="3" height="2.958"/>
	<rect x="59.084" y="89.959" fill="#C8B068" width="3" height="2.958"/>
	<rect x="83.011" y="95.959" fill="#C8B068" width="3" height="4.041"/>
	<rect x="83.011" y="98.896" fill="#C8B068" width="9.011" height="1.104"/>
	<rect x="98" y="95.959" fill="#C8B068" width="2" height="2.958"/>
	<rect x="10.959" y="90.021" fill="#C8B068" width="3" height="2.958"/>
	<rect x="29.005" y="95.959" fill="#C8B068" width="3" height="4.041"/>
	<rect x="29.005" y="98.896" fill="#C8B068" width="5.932" height="1.104"/>
	<rect x="20.021" y="81.021" fill="#C8B068" width="3" height="2.958"/>
	<rect x="1.896" y="83.979" fill="#C8B068" width="3" height="2.958"/>
	<rect x="25.959" y="72.021" fill="#C8B068" width="3" height="2.958"/>
	<rect x="13.959" y="66.021" fill="#C8B068" width="3" height="2.958"/>
	<rect x="28.959" y="66.021" fill="#C8B068" width="3" height="2.958"/>
	<rect x="8.021" y="59.959" fill="#C8B068" width="3" height="2.958"/>
	<rect x="50" y="68.979" fill="#C8B068" width="5.938" height="2.958"/>
	<rect x="34.959" y="51.084" fill="#C8B068" width="6.041" height="2.958"/>
	<rect x="41" y="57.021" fill="#C8B068" width="6" height="5.791"/>
	<rect x="41" y="57.021" fill="#C8B068" width="9" height="2.958"/>
	<rect x="10.959" y="42.021" fill="#C8B068" width="3" height="2.958"/>
	<rect x="19.959" y="33.021" fill="#C8B068" width="3" height="2.958"/>
	<rect x="28.999" y="24.021" fill="#C8B068" width="3" height="2.958"/>
	<rect x="2.021" y="21.021" fill="#C8B068" width="5.979" height="2.958"/>
	<rect y="8.979" fill="#C8B068" width="2.021" height="2.958"/>
</g>
<g id="Ebene_2">
	<rect x="41" fill="#504030" width="3" height="2.958"/>
	<rect x="50" y="6.042" fill="#504030" width="3" height="2.958"/>
	<rect x="37.958" y="14.958" fill="#504030" width="3" height="2.958"/>
	<rect x="44" y="23.958" fill="#504030" width="3" height="2.958"/>
	<rect x="25.958" y="23.958" fill="#504030" width="3" height="2.958"/>
	<rect x="97" y="30.042" fill="#504030" width="3" height="2.958"/>
	<rect x="85.916" y="39" fill="#504030" width="3" height="2.958"/>
	<rect x="92" y="48" fill="#504030" width="3" height="2.959"/>
	<rect x="92" y="65.959" fill="#504030" width="3" height="2.959"/>
	<rect x="74" y="72.042" fill="#504030" width="3" height="2.959"/>
	<rect x="77" y="75" fill="#504030" width="5.997" height="2.959"/>
	<rect x="79.999" y="75" fill="#504030" width="3" height="5.918"/>
	<rect x="97" y="84" fill="#504030" width="3" height="2.959"/>
	<rect x="76.999" y="90.042" fill="#504030" width="6" height="2.959"/>
	<rect x="80" y="91.521" fill="#504030" width="3" height="4.438"/>
	<rect x="92" y="97.041" fill="#504030" width="3" height="2.959"/>
	<rect x="50" y="78" fill="#504030" width="3" height="2.959"/>
	<rect x="38" y="86.959" fill="#504030" width="3" height="2.959"/>
	<rect x="43.958" y="96" fill="#504030" width="3" height="2.959"/>
	<rect y="87.041" fill="#504030" width="3" height="5.959"/>
	<rect y="97.041" fill="#504030" width="3" height="2.959"/>
	<rect y="75" fill="#504030" width="5.042" height="2.959"/>
	<rect x="28.958" y="42" fill="#504030" width="5.997" height="2.959"/>
	<rect x="31.958" y="42" fill="#504030" width="3" height="5.918"/>
	<rect x="2.001" y="30.021" fill="#504030" width="3" height="2.958"/>
	<rect x="62.084" y="30.021" fill="#504030" width="3" height="2.958"/>
</g>
</svg>
