<?xml version="1.0" encoding="utf-8"?>
<!-- Generator: Adobe Illustrator 16.0.0, SVG Export Plug-In . SVG Version: 6.00 Build 0)  -->
<!DOCTYPE svg PUBLIC "-//W3C//DTD SVG 1.1//EN" "http://www.w3.org/Graphics/SVG/1.1/DTD/svg11.dtd">
<svg version="1.1" id="Layer_1" xmlns="http://www.w3.org/2000/svg" xmlns:xlink="http://www.w3.org/1999/xlink" x="0px" y="0px"
	 width="100px" height="100px" viewBox="0 0 100 100" enable-background="new 0 0 100 100" xml:space="preserve">
<g id="Ebene_1">
	<g id="Ebene_6">
		<rect x="-0.047" y="-0.047" fill="#988048" width="100" height="100"/>
	</g>
	<g id="Ebene_5">
		<rect x="87.975" y="85.954" fill="#706030" width="2.957" height="3"/>
		<rect x="90.932" y="94.912" fill="#706030" width="6" height="3"/>
		<rect x="90.932" y="96.953" fill="#706030" width="3" height="3"/>
		<rect x="82.016" y="94.912" fill="#706030" width="2.959" height="5.041"/>
		<rect x="75.953" y="91.912" fill="#706030" width="6.062" height="3"/>
		<rect x="75.953" y="85.954" fill="#706030" width="2.958" height="8.958"/>
		<rect x="72.911" y="85.954" fill="#706030" width="6" height="5.958"/>
		<rect x="69.953" y="88.932" fill="#706030" width="7.208" height="3"/>
		<rect x="63.932" y="97.954" fill="#706030" width="2.959" height="1.999"/>
		<rect x="60.975" y="85.954" fill="#706030" width="2.957" height="11.958"/>
		<rect x="55.036" y="88.932" fill="#706030" width="11.854" height="3"/>
		<rect x="63.932" y="82.954" fill="#706030" width="2.959" height="8.958"/>
		<rect x="52.078" y="91.912" fill="#706030" width="2.958" height="3"/>
		<rect x="52.078" y="97.954" fill="#706030" width="2.958" height="1.956"/>
		<rect x="43.035" y="94.912" fill="#706030" width="9.043" height="3"/>
		<rect x="46.016" y="85.912" fill="#706030" width="2.959" height="10.289"/>
		<rect x="43.057" y="88.932" fill="#706030" width="4.229" height="3"/>
		<rect x="43.016" y="94.912" fill="#706030" width="2.959" height="4.998"/>
		<rect x="40.1" y="97.954" fill="#706030" width="5.875" height="1.956"/>
		<rect x="37.016" y="79.912" fill="#706030" width="2.959" height="9.021"/>
		<rect x="38.494" y="82.922" fill="#706030" width="4.438" height="3"/>
		<rect x="34.057" y="91.932" fill="#706030" width="2.959" height="8.021"/>
		<rect x="30.973" y="94.912" fill="#706030" width="4.438" height="3"/>
		<rect x="31.1" y="88.932" fill="#706030" width="2.957" height="3"/>
		<rect x="24.932" y="97.912" fill="#706030" width="2.959" height="2.041"/>
		<rect x="24.932" y="85.912" fill="#706030" width="2.959" height="6.021"/>
		<rect x="19.036" y="82.912" fill="#706030" width="5.896" height="6.01"/>
		<rect x="16.078" y="88.932" fill="#706030" width="2.958" height="3"/>
		<rect x="15.975" y="97.912" fill="#706030" width="2.957" height="2.041"/>
		<rect x="13.12" y="91.932" fill="#706030" width="2.958" height="5.979"/>
		<rect x="9.975" y="94.924" fill="#706030" width="6" height="3"/>
		<rect x="10.016" y="82.912" fill="#706030" width="2.959" height="9.021"/>
		<rect x="3.975" y="82.912" fill="#706030" width="7.271" height="3"/>
		<rect x="3.975" y="82.912" fill="#706030" width="2.957" height="6.01"/>
		<rect x="1.016" y="88.922" fill="#706030" width="2.959" height="6"/>
		<rect x="3.975" y="97.924" fill="#706030" width="2.957" height="2.029"/>
		<rect x="-0.047" y="97.924" fill="#706030" width="1.062" height="2.029"/>
		<rect x="-0.047" y="76.912" fill="#706030" width="6.979" height="3"/>
		<rect x="-0.047" y="70.912" fill="#706030" width="4.021" height="9"/>
		<rect x="3.975" y="67.912" fill="#706030" width="2.957" height="3"/>
		<rect x="10.016" y="67.912" fill="#706030" width="2.959" height="12"/>
		<rect x="11.913" y="73.912" fill="#706030" width="4.019" height="3"/>
		<rect x="15.932" y="76.912" fill="#706030" width="2.959" height="6"/>
		<rect x="19.025" y="73.912" fill="#706030" width="2.957" height="6"/>
		<rect x="17.557" y="76.912" fill="#706030" width="2.959" height="3"/>
		<rect x="21.975" y="67.912" fill="#706030" width="2.957" height="9"/>
		<rect x="20.682" y="73.912" fill="#706030" width="2.959" height="3"/>
		<rect x="24.453" y="70.912" fill="#706030" width="3.438" height="3"/>
		<rect x="27.891" y="73.912" fill="#706030" width="2.957" height="3"/>
		<rect x="24.932" y="76.912" fill="#706030" width="2.959" height="6"/>
		<rect x="-0.047" y="58.912" fill="#706030" width="0.938" height="3"/>
		<rect x="3.975" y="49.953" fill="#706030" width="2.957" height="5.957"/>
		<rect x="4.1" y="52.912" fill="#706030" width="5.916" height="3"/>
		<rect x="3.975" y="43.954" fill="#706030" width="2.957" height="3"/>
		<rect x="-0.047" y="46.954" fill="#706030" width="4.146" height="3"/>
		<rect x="-0.047" y="37.912" fill="#706030" width="0.938" height="10.289"/>
		<rect x="15.975" y="49.953" fill="#706030" width="2.957" height="3"/>
		<rect x="12.975" y="37.95" fill="#706030" width="2.957" height="12.004"/>
		<rect x="7.059" y="40.952" fill="#706030" width="11.832" height="3"/>
		<rect x="15.975" y="34.95" fill="#706030" width="2.957" height="7.333"/>
		<rect x="15.283" y="37.95" fill="#706030" width="3.648" height="3"/>
		<rect x="18.932" y="52.953" fill="#706030" width="8.959" height="3"/>
		<rect x="19.016" y="53.365" fill="#706030" width="2.959" height="5.588"/>
		<rect x="15.975" y="55.953" fill="#706030" width="2.957" height="8.996"/>
		<rect x="17.105" y="55.953" fill="#706030" width="2.959" height="3"/>
		<rect x="30.932" y="58.951" fill="#706030" width="2.959" height="5.998"/>
		<rect x="27.975" y="58.951" fill="#706030" width="5.916" height="3"/>
		<rect x="42.932" y="64.949" fill="#706030" width="5.918" height="6"/>
		<rect x="42.932" y="67.949" fill="#706030" width="2.959" height="6"/>
		<rect x="39.973" y="70.949" fill="#706030" width="4.438" height="3"/>
		<rect x="48.85" y="58.951" fill="#706030" width="2.957" height="5.998"/>
		<rect x="57.953" y="74.037" fill="#706030" width="5.979" height="5.959"/>
		<rect x="57.953" y="75.413" fill="#706030" width="2.958" height="10.541"/>
		<rect x="61.975" y="85.934" fill="#706030" width="2.957" height="3"/>
		<rect x="55.016" y="82.954" fill="#706030" width="2.959" height="8.958"/>
		<rect x="56.495" y="82.954" fill="#706030" width="2.958" height="3"/>
		<rect x="54.975" y="70.949" fill="#706030" width="2.957" height="6.066"/>
		<rect x="56.453" y="74.037" fill="#706030" width="2.958" height="3"/>
		<rect x="66.891" y="64.995" fill="#706030" width="2.957" height="12.021"/>
		<rect x="69.848" y="77.016" fill="#706030" width="6.063" height="5.938"/>
		<rect x="72.953" y="70.912" fill="#706030" width="2.958" height="12.042"/>
		<rect x="75.912" y="67.912" fill="#706030" width="2.958" height="3"/>
		<rect x="69.848" y="61.912" fill="#706030" width="2.959" height="3"/>
		<rect x="66.891" y="58.912" fill="#706030" width="2.957" height="3"/>
		<rect x="63.932" y="61.912" fill="#706030" width="2.959" height="6.047"/>
		<rect x="63.932" y="64.995" fill="#706030" width="4.791" height="3"/>
		<rect x="69.995" y="55.912" fill="#706030" width="2.958" height="3"/>
		<rect x="63.932" y="52.912" fill="#706030" width="2.959" height="3"/>
		<rect x="42.932" y="46.958" fill="#706030" width="2.959" height="8.996"/>
		<rect x="43.118" y="46.958" fill="#706030" width="5.731" height="3"/>
		<rect x="39.975" y="55.912" fill="#706030" width="2.957" height="6.038"/>
		<rect x="33.891" y="52.953" fill="#706030" width="6.084" height="5.959"/>
		<rect x="38.141" y="55.954" fill="#706030" width="2.959" height="3"/>
		<rect x="33.891" y="46.958" fill="#706030" width="3.041" height="11.374"/>
		<rect x="27.975" y="43.958" fill="#706030" width="5.916" height="3"/>
		<rect x="24.951" y="37.995" fill="#706030" width="5.98" height="5.962"/>
		<rect x="27.975" y="41.995" fill="#706030" width="2.957" height="3"/>
		<rect x="21.993" y="40.952" fill="#706030" width="8.938" height="3"/>
		<rect x="10.016" y="19.953" fill="#706030" width="2.959" height="17.996"/>
		<rect x="7.057" y="34.95" fill="#706030" width="2.959" height="9.002"/>
		<rect x="7.641" y="34.95" fill="#706030" width="2.959" height="3"/>
		<rect x="11.742" y="25.952" fill="#706030" width="4.189" height="5.963"/>
		<rect x="3.932" y="19.953" fill="#706030" width="2.959" height="3"/>
		<rect x="-0.047" y="22.953" fill="#706030" width="3.979" height="5.979"/>
		<rect x="3.932" y="-0.047" fill="#706030" width="2.959" height="7.961"/>
		<rect x="3.932" y="4.914" fill="#706030" width="5.916" height="3"/>
		<rect x="-0.047" y="1.914" fill="#706030" width="4.947" height="3"/>
		<rect x="-0.047" y="10.995" fill="#706030" width="1.02" height="3"/>
		<rect x="19.016" y="4.914" fill="#706030" width="8.892" height="3"/>
		<rect x="18.932" y="2.039" fill="#706030" width="2.959" height="8.875"/>
		<rect x="24.949" y="2.039" fill="#706030" width="2.958" height="3"/>
		<rect x="24.949" y="7.08" fill="#706030" width="2.958" height="3.833"/>
		<rect x="15.975" y="7.914" fill="#706030" width="2.957" height="9.083"/>
		<rect x="17.184" y="7.914" fill="#706030" width="2.957" height="3"/>
		<rect x="15.975" y="-0.047" fill="#706030" width="2.957" height="4.961"/>
		<rect x="17.016" y="1.914" fill="#706030" width="4.875" height="3"/>
		<rect x="21.891" y="19.953" fill="#706030" width="2.957" height="14.996"/>
		<rect x="18.973" y="25.952" fill="#706030" width="3.517" height="3"/>
		<rect x="21.891" y="28.952" fill="#706030" width="5.916" height="5.998"/>
		<rect x="23.823" y="19.953" fill="#706030" width="3.983" height="5.998"/>
		<rect x="24.406" y="22.953" fill="#706030" width="15.525" height="3"/>
		<rect x="30.932" y="25.29" fill="#706030" width="2.959" height="3.662"/>
		<rect x="33.891" y="28.952" fill="#706030" width="2.957" height="5.998"/>
		<rect x="33.975" y="16.953" fill="#706030" width="2.957" height="6.419"/>
		<rect x="39.975" y="37.995" fill="#706030" width="2.957" height="3"/>
		<rect x="33.975" y="-0.047" fill="#706030" width="2.957" height="4.961"/>
		<rect x="31.029" y="-0.047" fill="#706030" width="5.902" height="1.961"/>
		<rect x="40.016" y="1.914" fill="#706030" width="5.928" height="3"/>
		<rect x="42.98" y="-0.047" fill="#706030" width="8.992" height="1.961"/>
		<rect x="42.979" y="10.995" fill="#706030" width="5.923" height="3"/>
		<rect x="42.982" y="10.995" fill="#706030" width="2.957" height="11.957"/>
		<rect x="40.021" y="16.953" fill="#706030" width="3.709" height="3"/>
		<rect x="45.939" y="22.953" fill="#706030" width="5.92" height="5.922"/>
		<rect x="52.057" y="19.953" fill="#706030" width="2.959" height="3"/>
		<rect x="48.901" y="28.875" fill="#706030" width="6.114" height="3"/>
		<rect x="48.901" y="27.078" fill="#706030" width="2.958" height="3"/>
		<rect x="51.958" y="34.995" fill="#706030" width="6.015" height="6"/>
		<rect x="60.932" y="37.995" fill="#706030" width="2.959" height="8.962"/>
		<rect x="57.975" y="40.977" fill="#706030" width="4.177" height="3"/>
		<rect x="51.973" y="4.974" fill="#706030" width="5.928" height="3"/>
		<rect x="51.973" y="1.974" fill="#706030" width="2.959" height="3.51"/>
		<rect x="57.975" y="19.953" fill="#706030" width="2.957" height="11.921"/>
		<rect x="57.975" y="25.912" fill="#706030" width="5.916" height="5.963"/>
		<rect x="69.975" y="34.995" fill="#706030" width="2.957" height="5.981"/>
		<rect x="67.016" y="34.995" fill="#706030" width="3.969" height="3"/>
		<rect x="72.932" y="46.958" fill="#706030" width="2.959" height="3"/>
		<rect x="75.891" y="43.958" fill="#706030" width="2.957" height="3"/>
		<rect x="75.891" y="49.912" fill="#706030" width="2.957" height="6"/>
		<rect x="77.985" y="52.912" fill="#706030" width="3.821" height="3"/>
		<rect x="96.995" y="55.975" fill="#706030" width="2.958" height="3"/>
		<rect x="96.995" y="61.975" fill="#706030" width="2.958" height="3"/>
		<rect x="90.984" y="52.975" fill="#706030" width="6.011" height="3"/>
		<rect x="90.975" y="52.975" fill="#706030" width="2.957" height="6"/>
		<rect x="88.026" y="55.975" fill="#706030" width="2.958" height="9"/>
		<rect x="88.786" y="55.975" fill="#706030" width="2.958" height="3"/>
		<rect x="88.026" y="49.953" fill="#706030" width="2.958" height="3"/>
		<rect x="85.068" y="38.015" fill="#706030" width="2.958" height="11.896"/>
		<rect x="96.995" y="43.964" fill="#706030" width="2.958" height="5.948"/>
		<rect x="93.99" y="40.964" fill="#706030" width="2.958" height="3"/>
		<rect x="96.995" y="37.964" fill="#706030" width="2.958" height="3"/>
		<rect x="78.848" y="40.964" fill="#706030" width="12.137" height="3"/>
		<rect x="88.026" y="35.015" fill="#706030" width="2.958" height="8.948"/>
		<rect x="86.053" y="37.99" fill="#706030" width="2.957" height="3"/>
		<rect x="78.848" y="35.015" fill="#706030" width="2.959" height="8.948"/>
		<rect x="81.807" y="28.953" fill="#706030" width="2.957" height="9.062"/>
		<rect x="81.805" y="28.953" fill="#706030" width="6.222" height="3"/>
		<rect x="80.573" y="35.015" fill="#706030" width="2.958" height="3"/>
		<rect x="93.99" y="28.953" fill="#706030" width="2.958" height="6.062"/>
		<rect x="88.026" y="22.99" fill="#706030" width="5.983" height="3"/>
		<rect x="91.02" y="16.99" fill="#706030" width="5.929" height="6"/>
		<rect x="96.995" y="10.99" fill="#706030" width="2.958" height="6"/>
		<rect x="91.025" y="-0.047" fill="#706030" width="2.958" height="8.005"/>
		<rect x="91.025" y="-0.047" fill="#706030" width="5.923" height="1.943"/>
		<rect x="88.061" y="7.99" fill="#706030" width="2.957" height="5.932"/>
		<rect x="82.016" y="4.958" fill="#706030" width="6.045" height="5.998"/>
		<rect x="82.053" y="-0.047" fill="#706030" width="2.957" height="8.037"/>
		<rect x="86.581" y="7.99" fill="#706030" width="2.958" height="2.966"/>
		<rect x="79.094" y="10.99" fill="#706030" width="2.959" height="5.963"/>
		<rect x="76.137" y="10.956" fill="#706030" width="3.973" height="3"/>
		<rect x="76.01" y="25.953" fill="#706030" width="2.959" height="3"/>
		<rect x="72.141" y="22.953" fill="#706030" width="3.869" height="3"/>
		<rect x="70.094" y="19.953" fill="#706030" width="2.959" height="9"/>
		<rect x="67.016" y="25.953" fill="#706030" width="4.438" height="3"/>
		<rect x="63.99" y="1.927" fill="#706030" width="2.958" height="3"/>
		<rect x="61.032" y="-0.047" fill="#706030" width="2.958" height="1.974"/>
		<rect x="66.948" y="4.927" fill="#706030" width="9.188" height="3"/>
		<rect x="66.948" y="4.974" fill="#706030" width="2.958" height="5.953"/>
		<rect x="63.99" y="7.927" fill="#706030" width="2.958" height="8.995"/>
		<rect x="64.958" y="7.927" fill="#706030" width="2.958" height="3"/>
		<rect x="81.958" y="67.93" fill="#706030" width="2.958" height="14.994"/>
		<rect x="83.859" y="73.928" fill="#706030" width="4.015" height="3"/>
		<rect x="94.016" y="67.96" fill="#706030" width="5.938" height="8.968"/>
		<rect x="96.995" y="75.641" fill="#706030" width="2.958" height="4.287"/>
		<rect x="91.057" y="73.928" fill="#706030" width="5.053" height="3"/>
	</g>
	<g id="Ebene_4">
		<rect x="78.973" y="19.954" fill="#C8B068" width="2.959" height="5.997"/>
		<rect x="78.973" y="19.953" fill="#C8B068" width="5.918" height="3"/>
		<rect x="31.035" y="67.914" fill="#C8B068" width="2.959" height="5.996"/>
		<rect x="31.035" y="67.912" fill="#C8B068" width="5.918" height="3"/>
		<rect x="96.995" y="25.952" fill="#C8B068" width="2.958" height="3"/>
		<rect x="81.934" y="25.952" fill="#C8B068" width="2.957" height="3"/>
		<rect x="88.016" y="67.954" fill="#C8B068" width="2.959" height="3"/>
		<rect x="78.975" y="58.912" fill="#C8B068" width="2.957" height="3"/>
		<rect x="78.975" y="77.037" fill="#C8B068" width="2.957" height="3"/>
		<rect x="94.016" y="83.037" fill="#C8B068" width="2.957" height="5.917"/>
		<rect x="88.016" y="88.954" fill="#C8B068" width="2.959" height="9.001"/>
		<rect x="85.059" y="88.954" fill="#C8B068" width="5.916" height="6.001"/>
		<rect x="76.016" y="96.953" fill="#C8B068" width="2.959" height="3"/>
		<rect x="66.932" y="46.953" fill="#C8B068" width="2.959" height="6.004"/>
		<rect x="54.994" y="49.955" fill="#C8B068" width="5.938" height="3"/>
		<rect x="55.004" y="49.955" fill="#C8B068" width="2.958" height="9.044"/>
		<rect x="52.046" y="52.977" fill="#C8B068" width="5.916" height="6.021"/>
		<rect x="60.932" y="58.999" fill="#C8B068" width="2.959" height="8.958"/>
		<rect x="57.975" y="58.999" fill="#C8B068" width="5.916" height="5.958"/>
		<rect x="49.088" y="73.975" fill="#C8B068" width="2.958" height="5.979"/>
		<rect x="46.129" y="76.965" fill="#C8B068" width="5.917" height="3"/>
		<rect x="46.13" y="76.965" fill="#C8B068" width="2.958" height="6"/>
		<rect x="33.995" y="73.91" fill="#C8B068" width="2.958" height="3"/>
		<rect x="28.077" y="79.965" fill="#C8B068" width="2.958" height="3"/>
		<rect x="16.016" y="91.975" fill="#C8B068" width="5.959" height="5.979"/>
		<rect x="16.036" y="67.912" fill="#C8B068" width="2.958" height="3"/>
		<rect x="7.036" y="59.037" fill="#C8B068" width="2.958" height="3"/>
		<rect x="-0.047" y="82.965" fill="#C8B068" width="4.041" height="3"/>
		<rect x="-0.047" y="82.965" fill="#C8B068" width="1.104" height="9.01"/>
		<rect x="1.036" y="97.953" fill="#C8B068" width="2.958" height="2"/>
		<rect x="6.975" y="10.912" fill="#C8B068" width="2.957" height="3"/>
		<rect x="-0.047" y="28.958" fill="#C8B068" width="4.041" height="3"/>
		<rect x="-0.047" y="28.958" fill="#C8B068" width="1.104" height="5.932"/>
		<rect x="15.975" y="19.974" fill="#C8B068" width="2.957" height="3"/>
		<rect x="13.016" y="1.849" fill="#C8B068" width="2.959" height="3"/>
		<rect x="24.975" y="25.912" fill="#C8B068" width="2.957" height="3"/>
		<rect x="30.975" y="13.912" fill="#C8B068" width="2.957" height="3"/>
		<rect x="30.975" y="28.912" fill="#C8B068" width="2.957" height="3"/>
		<rect x="37.036" y="7.974" fill="#C8B068" width="2.958" height="3"/>
		<rect x="28.016" y="49.953" fill="#C8B068" width="2.959" height="5.938"/>
		<rect x="45.911" y="34.912" fill="#C8B068" width="2.958" height="6.041"/>
		<rect x="37.141" y="40.953" fill="#C8B068" width="5.791" height="6"/>
		<rect x="39.975" y="40.953" fill="#C8B068" width="2.957" height="9"/>
		<rect x="54.975" y="10.912" fill="#C8B068" width="2.957" height="3"/>
		<rect x="63.975" y="19.912" fill="#C8B068" width="2.957" height="3"/>
		<rect x="72.975" y="28.952" fill="#C8B068" width="2.957" height="3"/>
		<rect x="75.975" y="1.974" fill="#C8B068" width="2.957" height="5.979"/>
		<rect x="88.016" y="-0.047" fill="#C8B068" width="2.959" height="2.021"/>
	</g>
	<g id="Ebene_2">
		<rect x="96.995" y="40.953" fill="#504030" width="2.958" height="3"/>
		<rect x="90.953" y="49.953" fill="#504030" width="2.958" height="3"/>
		<rect x="82.037" y="37.911" fill="#504030" width="2.958" height="3"/>
		<rect x="73.037" y="43.953" fill="#504030" width="2.958" height="3"/>
		<rect x="73.037" y="25.911" fill="#504030" width="2.958" height="3"/>
		<rect x="66.953" y="96.953" fill="#504030" width="2.958" height="3"/>
		<rect x="57.995" y="85.869" fill="#504030" width="2.958" height="3"/>
		<rect x="48.994" y="91.953" fill="#504030" width="2.959" height="3"/>
		<rect x="31.035" y="91.953" fill="#504030" width="2.959" height="3"/>
		<rect x="24.952" y="73.953" fill="#504030" width="2.959" height="3"/>
		<rect x="21.994" y="76.953" fill="#504030" width="2.959" height="5.997"/>
		<rect x="19.035" y="79.952" fill="#504030" width="5.918" height="3"/>
		<rect x="12.994" y="96.953" fill="#504030" width="2.959" height="3"/>
		<rect x="6.952" y="76.952" fill="#504030" width="2.959" height="6"/>
		<rect x="3.994" y="79.953" fill="#504030" width="4.438" height="3"/>
		<rect x="-0.047" y="91.953" fill="#504030" width="2.959" height="3"/>
		<rect x="18.994" y="49.953" fill="#504030" width="2.959" height="3"/>
		<rect x="10.035" y="37.953" fill="#504030" width="2.959" height="3"/>
		<rect x="0.994" y="43.911" fill="#504030" width="2.959" height="3"/>
		<rect x="6.953" y="-0.047" fill="#504030" width="5.959" height="3"/>
		<rect x="-0.047" y="-0.047" fill="#504030" width="2.959" height="3"/>
		<rect x="21.994" y="-0.047" fill="#504030" width="2.959" height="5.042"/>
		<rect x="54.994" y="28.911" fill="#504030" width="2.959" height="5.997"/>
		<rect x="52.035" y="31.911" fill="#504030" width="5.918" height="3"/>
		<rect x="66.975" y="1.954" fill="#504030" width="2.957" height="3"/>
		<rect x="66.975" y="62.037" fill="#504030" width="2.957" height="3"/>
	</g>
</g>
<rect x="93.693" y="19.848" fill="#4B720E" width="6.354" height="2.585"/>
<rect x="49.953" y="21.41" fill="#4B720E" width="50.167" height="4.625"/>
<rect x="83.141" y="23.516" fill="#4B720E" width="8.729" height="4.562"/>
<rect x="3.23" y="22.973" fill="#4B720E" width="79.171" height="3.125"/>
<rect x="61.182" y="24.535" fill="#4B720E" width="6.354" height="3.125"/>
<rect x="53.682" y="25.535" fill="#4B720E" width="6.354" height="3.125"/>
<rect x="36.083" y="25.535" fill="#4B720E" width="8.688" height="3.125"/>
<rect x="28.807" y="25.535" fill="#4B720E" width="6.354" height="3.125"/>
<rect x="4.729" y="25.535" fill="#4B720E" width="12.492" height="3.125"/>
<g id="Ebene_4_4_">
	<rect x="50" y="0.907" fill="#5A8212" width="50" height="20.047"/>
</g>
<rect x="93.791" y="2.182" fill="#62921D" width="3.084" height="9.396"/>
<rect x="84.293" y="2.182" fill="#62921D" width="10.499" height="3.125"/>
<rect x="96.251" y="5.317" fill="#62921D" width="3.749" height="3.125"/>
<rect x="96.917" y="17.745" fill="#62921D" width="3.083" height="3.125"/>
<rect x="84.396" y="17.828" fill="#62921D" width="3.084" height="3.125"/>
<rect x="78.125" y="14.703" fill="#62921D" width="6.271" height="3.125"/>
<rect x="68.791" y="14.703" fill="#62921D" width="3.084" height="3.125"/>
<rect x="71.917" y="5.328" fill="#62921D" width="3.083" height="3.125"/>
<rect x="65.708" y="2.203" fill="#62921D" width="3.083" height="3.125"/>
<rect x="62.624" y="8.453" fill="#62921D" width="3.084" height="3.125"/>
<rect x="56.252" y="17.828" fill="#62921D" width="9.456" height="3.125"/>
<rect x="59.438" y="14.703" fill="#62921D" width="3.084" height="4.688"/>
<rect x="56.251" y="5.328" fill="#62921D" width="3.084" height="3.125"/>
<rect x="49.999" y="8.453" fill="#62921D" width="6.252" height="3.125"/>
<rect x="50.042" y="11.076" fill="#62921D" width="3.083" height="3.627"/>
<rect x="59.438" y="1.745" fill="#62921D" width="3.084" height="3.583"/>
<rect x="50.042" y="2.203" fill="#62921D" width="6.209" height="3.125"/>
<rect x="96.917" y="2.224" fill="#4B720E" width="3.083" height="3.125"/>
<rect x="87.521" y="5.349" fill="#4B720E" width="6.271" height="3.125"/>
<rect x="93.791" y="14.682" fill="#4B720E" width="3.084" height="3.125"/>
<rect x="84.438" y="14.703" fill="#4B720E" width="3.084" height="3.125"/>
<rect x="78.146" y="17.828" fill="#4B720E" width="6.291" height="3.125"/>
<rect x="71.917" y="2.203" fill="#4B720E" width="3.083" height="3.125"/>
<rect x="68.75" y="8.453" fill="#4B720E" width="3.083" height="3.125"/>
<rect x="65.666" y="5.328" fill="#4B720E" width="3.084" height="3.125"/>
<rect x="62.52" y="11.578" fill="#4B720E" width="3.084" height="6.248"/>
<rect x="50.042" y="17.828" fill="#4B720E" width="6.208" height="3.125"/>
<rect x="50.042" y="14.703" fill="#4B720E" width="3.083" height="3.683"/>
<rect x="49.917" y="5.349" fill="#4B720E" width="6.313" height="3.125"/>
<rect x="87.499" y="11.578" fill="#7AAA22" width="9.392" height="3.125"/>
<rect x="84.375" y="8.453" fill="#7AAA22" width="9.361" height="3.125"/>
<rect x="93.737" y="21.167" fill="#7AAA22" width="6.167" height="2.249"/>
<rect x="75" y="5.349" fill="#7AAA22" width="6.229" height="3.125"/>
<rect x="71.895" y="14.703" fill="#7AAA22" width="6.22" height="3.125"/>
<rect x="68.77" y="2.203" fill="#7AAA22" width="3.084" height="3.125"/>
<rect x="55.021" y="2.182" fill="#7AAA22" width="4.332" height="3.125"/>
<rect x="59.354" y="5.328" fill="#7AAA22" width="6.23" height="3.125"/>
<rect x="65.584" y="8.453" fill="#7AAA22" width="3.186" height="3.125"/>
<rect x="53.105" y="11.578" fill="#7AAA22" width="6.248" height="3.125"/>
<rect x="87.584" y="23.975" fill="#62921D" width="6.207" height="3.125"/>
<rect x="50.044" y="20.932" fill="#62921D" width="9.373" height="3.125"/>
<rect x="56.333" y="22.973" fill="#62921D" width="3.084" height="4.211"/>
<rect x="62.521" y="24.057" fill="#62921D" width="3.084" height="3.125"/>
<rect x="65.605" y="20.932" fill="#62921D" width="3.082" height="3.125"/>
<rect x="71.895" y="20.932" fill="#62921D" width="6.189" height="3.125"/>
<rect x="81.417" y="23.975" fill="#62921D" width="3.083" height="3.125"/>
<rect x="84.5" y="20.932" fill="#62921D" width="3.084" height="3.125"/>
<g id="Ebene_4_2_">
	<rect y="-0.132" fill="#5A8212" width="50.027" height="21.086"/>
</g>
<rect x="43.816" y="2.182" fill="#62921D" width="3.084" height="9.396"/>
<rect x="34.32" y="2.182" fill="#62921D" width="10.498" height="3.125"/>
<rect x="46.277" y="5.317" fill="#62921D" width="3.75" height="3.125"/>
<rect x="46.943" y="17.745" fill="#62921D" width="3.083" height="3.125"/>
<rect x="34.423" y="17.828" fill="#62921D" width="3.084" height="3.125"/>
<rect x="28.152" y="14.703" fill="#62921D" width="6.271" height="3.125"/>
<rect x="18.818" y="14.703" fill="#62921D" width="3.084" height="3.125"/>
<rect x="21.943" y="5.328" fill="#62921D" width="3.084" height="3.125"/>
<rect x="15.734" y="2.203" fill="#62921D" width="3.084" height="3.125"/>
<rect x="12.65" y="8.453" fill="#62921D" width="3.084" height="3.125"/>
<rect x="6.279" y="17.828" fill="#62921D" width="9.455" height="3.125"/>
<rect x="9.465" y="14.703" fill="#62921D" width="3.084" height="4.688"/>
<rect x="6.279" y="5.328" fill="#62921D" width="3.084" height="3.125"/>
<rect x="0.027" y="8.453" fill="#62921D" width="6.252" height="3.125"/>
<rect x="0.07" y="11.076" fill="#62921D" width="3.082" height="3.627"/>
<rect x="9.465" y="1.417" fill="#62921D" width="3.084" height="3.911"/>
<rect x="0.027" y="2.203" fill="#62921D" width="6.252" height="3.125"/>
<rect x="46.943" y="2.224" fill="#4B720E" width="3.083" height="3.125"/>
<rect x="37.547" y="5.349" fill="#4B720E" width="6.271" height="3.125"/>
<rect x="43.816" y="14.682" fill="#4B720E" width="3.084" height="3.125"/>
<rect x="34.464" y="14.703" fill="#4B720E" width="3.084" height="3.125"/>
<rect x="28.174" y="17.828" fill="#4B720E" width="6.29" height="3.125"/>
<rect x="21.943" y="2.203" fill="#4B720E" width="3.084" height="3.125"/>
<rect x="18.777" y="8.453" fill="#4B720E" width="3.082" height="3.125"/>
<rect x="15.693" y="5.328" fill="#4B720E" width="3.084" height="3.125"/>
<rect x="12.547" y="11.578" fill="#4B720E" width="3.084" height="6.248"/>
<rect x="0.068" y="17.828" fill="#4B720E" width="6.209" height="3.125"/>
<rect x="0.068" y="14.703" fill="#4B720E" width="3.084" height="3.683"/>
<rect x="0.027" y="5.349" fill="#4B720E" width="6.23" height="3.125"/>
<rect x="37.525" y="11.578" fill="#7AAA22" width="9.392" height="3.125"/>
<rect x="34.402" y="8.453" fill="#7AAA22" width="9.363" height="3.125"/>
<rect x="43.766" y="17.828" fill="#7AAA22" width="3.082" height="3.125"/>
<rect x="25.027" y="5.349" fill="#7AAA22" width="6.229" height="3.125"/>
<rect x="21.922" y="14.703" fill="#7AAA22" width="6.221" height="3.125"/>
<rect x="-0.116" fill="#7AAA22" width="100.146" height="2.235"/>
<rect x="18.797" y="2.203" fill="#7AAA22" width="3.084" height="3.125"/>
<rect x="6.299" y="1.724" fill="#7AAA22" width="5.457" height="3.583"/>
<rect x="9.381" y="5.328" fill="#7AAA22" width="6.23" height="3.125"/>
<rect x="15.611" y="8.453" fill="#7AAA22" width="3.186" height="3.125"/>
<rect x="3.133" y="11.578" fill="#7AAA22" width="6.248" height="3.125"/>
<rect x="37.62" y="23.995" fill="#62921D" width="6.207" height="3.125"/>
<rect x="0.08" y="20.953" fill="#62921D" width="9.373" height="3.125"/>
<rect x="6.369" y="22.993" fill="#62921D" width="3.084" height="4.21"/>
<rect x="12.559" y="24.078" fill="#62921D" width="3.084" height="3.125"/>
<rect x="15.643" y="20.953" fill="#62921D" width="3.082" height="3.125"/>
<rect x="21.932" y="20.953" fill="#62921D" width="6.189" height="3.125"/>
<rect x="31.453" y="23.995" fill="#62921D" width="3.083" height="3.125"/>
<rect x="34.536" y="20.953" fill="#62921D" width="3.084" height="3.125"/>
<rect x="46.954" y="24.119" fill="#4B720E" width="3.083" height="3.125"/>
<rect x="0.037" y="24.057" fill="#4B720E" width="6.252" height="3.125"/>
<rect x="9.371" y="20.953" fill="#4B720E" width="3.084" height="3.125"/>
<rect x="28.182" y="24.078" fill="#4B720E" width="3.084" height="3.125"/>
<rect x="37.62" y="20.953" fill="#4B720E" width="3.082" height="3.125"/>
<rect x="87.521" y="19.307" fill="#7AAA22" width="6.271" height="3.125"/>
<rect x="81.158" y="17.828" fill="#7AAA22" width="6.271" height="3.125"/>
<rect x="78.282" y="20.953" fill="#7AAA22" width="6.271" height="3.125"/>
<rect x="73" y="19.848" fill="#7AAA22" width="6.271" height="3.125"/>
<rect x="68.792" y="20.87" fill="#7AAA22" width="4.208" height="3.125"/>
<rect x="62.573" y="19.848" fill="#7AAA22" width="6.271" height="2.673"/>
<rect x="57.741" y="20.87" fill="#7AAA22" width="6.271" height="3.125"/>
<rect x="51.656" y="17.828" fill="#7AAA22" width="6.271" height="5.145"/>
<rect x="40.684" y="20.87" fill="#7AAA22" width="11.568" height="3.125"/>
<rect x="34.35" y="19.848" fill="#7AAA22" width="6.271" height="1.562"/>
<rect x="26.568" y="20.87" fill="#7AAA22" width="9.562" height="3.125"/>
<rect x="24.975" y="19.848" fill="#7AAA22" width="6.271" height="3.125"/>
<rect x="18.725" y="17.828" fill="#7AAA22" width="6.271" height="5.165"/>
<rect x="13.652" y="20.87" fill="#7AAA22" width="6.271" height="3.125"/>
<rect x="9.361" y="20.87" fill="#7AAA22" width="6.271" height="3.125"/>
<rect x="4.775" y="18.838" fill="#7AAA22" width="6.271" height="3.125"/>
<rect x="0.143" y="18.285" fill="#7AAA22" width="6.271" height="3.125"/>
<rect y="21.209" fill="#7AAA22" width="4.942" height="2.249"/>
</svg>
